<svg xmlns="http://www.w3.org/2000/svg" viewBox="0 0 1402.38 402.77"><defs><style>.cls-1{isolation:isolate;}.cls-2{mix-blend-mode:multiply;opacity:0.75;}.cls-3{fill:#96f;}</style></defs><g class="cls-1"><g id="Layer_1" data-name="Layer 1"><g class="cls-2"><path d="M713.15,485.89,693.78,441V404.39A23.25,23.25,0,0,0,686.32,387a27.46,27.46,0,0,0-3.47-2.82,25.42,25.42,0,0,0-3.53-4.18,24.7,24.7,0,0,0-17.73-7.18,22.9,22.9,0,0,0-17,7.18,24,24,0,0,0-7,17.43v47.46l20.48,47.67ZM371.31,509.77,355.22,529l87.64-10.55-1.09-1.32L525,417q3.21-3.81,3.22-13.77a21.29,21.29,0,0,0-7.62-16.85,33.44,33.44,0,0,0-2.68-2.05,22.73,22.73,0,0,0-4.32-4.95,25.37,25.37,0,0,0-17-6.59,22,22,0,0,0-17.59,8.48l-75.77,89.47-67.88-81.8a26.52,26.52,0,0,0-5.18-4.8l-1.82-2.2a24.62,24.62,0,0,0-19.88-9.15,22.53,22.53,0,0,0-17.69,7.76A25.61,25.61,0,0,0,284,398a21.79,21.79,0,0,0,5.57,14.65Zm872.15-126.65a28.11,28.11,0,0,0-2.82-3.46,23.25,23.25,0,0,0-17.43-7.47H1036a23.41,23.41,0,0,0-17.29,7.47,23.81,23.81,0,0,0-7.32,17.14,24.58,24.58,0,0,0,7.17,17.87,26.3,26.3,0,0,0,4,3.37,26.5,26.5,0,0,0,3,3.63A23.51,23.51,0,0,0,1043,429h133.44l-1.36,1.31,79.73-9.6V404.39a24.7,24.7,0,0,0-7.18-17.73A26,26,0,0,0,1243.46,383.12Zm-362.17.21a27.54,27.54,0,0,0-3.19-3.81,23.68,23.68,0,0,0-17.29-7.33,24.2,24.2,0,0,0-17.72,7.47q-7.49,7.45-7.48,17.12l-.12,37.76-17.31,38.71L886.6,465l5.82-13.17V403.8a23.67,23.67,0,0,0-7.32-17.28A27.31,27.31,0,0,0,881.29,383.33Zm-598.51,232q-4.68,5.57-4.68,14.94a24.82,24.82,0,0,0,7,17.87,24.42,24.42,0,0,0,4.18,3.5,25.58,25.58,0,0,0,2.82,3.5,23.36,23.36,0,0,0,17.58,7.32q11.71,0,19.63-10.25l68-81-86.3,10.39Zm195.81-53.91L419,568.62l63.59,76.62a33.07,33.07,0,0,0,5.8,5.55l1.2,1.45q8.49,10.25,19.92,10.25,9.66,0,17.14-7.53a25.58,25.58,0,0,0,7.47-18.76,20,20,0,0,0-5-13.84ZM1666.47,687.69v-7H1298.21v49.8h7v7h368.26v-49.8Zm-423.25-70.4a25.74,25.74,0,0,0-3.17-3.84,23.77,23.77,0,0,0-17.44-7.17H1078.8L1217,472.6l-98.28,11.83L1012.57,586.35q-13.19,12.9-13.19,23.44v21.09a23.49,23.49,0,0,0,7.33,17.44,26.5,26.5,0,0,0,3.63,3,25.73,25.73,0,0,0,3.37,4,24.58,24.58,0,0,0,17.87,7.17h198.05a24.64,24.64,0,0,0,17.42-42A25.59,25.59,0,0,0,1243.22,617.29ZM768.63,584H755.51l-22.93-53.12-55.2,6.64,34,79q3.95,9.2,10.52,13.47,7.39,10.77,20.57,10.78h2L713.74,712H661a24,24,0,0,0-17.44,7,23.25,23.25,0,0,0-7.17,17.28,23.62,23.62,0,0,0,7.17,17.58,26.25,26.25,0,0,0,3.72,3,24.87,24.87,0,0,0,3.28,4A24,24,0,0,0,668,768h68.3q16.7,0,23.44-16.09L864.49,515l-68.69,8.26Z" transform="translate(-271.1 -365.19)"/></g><path class="cls-3" d="M706.15,478.89,686.78,434V397.39A23.25,23.25,0,0,0,679.32,380a27.46,27.46,0,0,0-3.47-2.82,25.42,25.42,0,0,0-3.53-4.18,24.7,24.7,0,0,0-17.73-7.18,22.9,22.9,0,0,0-17,7.18,24,24,0,0,0-7,17.43v47.46l20.48,47.67ZM364.31,502.77,348.22,522l87.64-10.55-1.09-1.32L518,410q3.21-3.81,3.22-13.77a21.29,21.29,0,0,0-7.62-16.85,33.44,33.44,0,0,0-2.68-2.05,22.73,22.73,0,0,0-4.32-4.95,25.37,25.37,0,0,0-17-6.59,22,22,0,0,0-17.59,8.48l-75.77,89.47-67.88-81.8a26.52,26.52,0,0,0-5.18-4.8l-1.82-2.2a24.62,24.62,0,0,0-19.88-9.15,22.53,22.53,0,0,0-17.69,7.76A25.61,25.61,0,0,0,277,391a21.79,21.79,0,0,0,5.57,14.65Zm872.15-126.65a28.11,28.11,0,0,0-2.82-3.46,23.25,23.25,0,0,0-17.43-7.47H1029a23.41,23.41,0,0,0-17.29,7.47,23.81,23.81,0,0,0-7.32,17.14,24.58,24.58,0,0,0,7.17,17.87,26.3,26.3,0,0,0,4,3.37,26.5,26.5,0,0,0,3,3.63A23.51,23.51,0,0,0,1036,422h133.44l-1.36,1.31,79.73-9.6V397.39a24.7,24.7,0,0,0-7.18-17.73A26,26,0,0,0,1236.46,376.12Zm-362.17.21a27.54,27.54,0,0,0-3.19-3.81,23.68,23.68,0,0,0-17.29-7.33,24.2,24.2,0,0,0-17.72,7.47q-7.49,7.45-7.48,17.12l-.12,37.76-17.31,38.71L879.6,458l5.82-13.17V396.8a23.67,23.67,0,0,0-7.32-17.28A27.31,27.31,0,0,0,874.29,376.33Zm-598.51,232q-4.68,5.57-4.68,14.94a24.82,24.82,0,0,0,7,17.87,24.42,24.42,0,0,0,4.18,3.5,25.58,25.58,0,0,0,2.82,3.5,23.36,23.36,0,0,0,17.58,7.32q11.71,0,19.63-10.25l68-81-86.3,10.39Zm195.81-53.91L412,561.62l63.59,76.62a33.07,33.07,0,0,0,5.8,5.55l1.2,1.45q8.49,10.25,19.92,10.25,9.66,0,17.14-7.53a25.58,25.58,0,0,0,7.47-18.76,20,20,0,0,0-5-13.84ZM1659.47,680.69v-7H1291.21v49.8h7v7h368.26v-49.8Zm-423.25-70.4a25.74,25.74,0,0,0-3.17-3.84,23.77,23.77,0,0,0-17.44-7.17H1071.8L1210,465.6l-98.28,11.83L1005.57,579.35q-13.19,12.9-13.19,23.44v21.09a23.49,23.49,0,0,0,7.33,17.44,26.5,26.5,0,0,0,3.63,3,25.73,25.73,0,0,0,3.37,4,24.58,24.58,0,0,0,17.87,7.17h198.05a24.64,24.64,0,0,0,17.42-42A25.59,25.59,0,0,0,1236.22,610.29ZM761.63,577H748.51l-22.93-53.12-55.2,6.64,34,79q3.95,9.2,10.52,13.47,7.39,10.77,20.57,10.78h2L706.74,705H654a24,24,0,0,0-17.44,7,23.25,23.25,0,0,0-7.17,17.28,23.62,23.62,0,0,0,7.17,17.58,26.25,26.25,0,0,0,3.72,3,24.87,24.87,0,0,0,3.28,4A24,24,0,0,0,661,761h68.3q16.7,0,23.44-16.09L857.49,508l-68.69,8.26Z" transform="translate(-271.1 -365.19)"/></g></g></svg>